<svg width="82" height="82" viewBox="0 0 82 82" fill="none" xmlns="http://www.w3.org/2000/svg">
<rect x="0.5" y="0.5" width="81" height="81" rx="40.5" stroke="url(#paint0_linear_121_1908)"/>
<rect x="0.5" y="0.5" width="81" height="81" rx="40.5" stroke="url(#paint1_linear_121_1908)"/>
<rect x="10.5" y="10.5" width="61" height="61" rx="30.5" stroke="url(#paint2_linear_121_1908)"/>
<rect x="10.5" y="10.5" width="61" height="61" rx="30.5" stroke="url(#paint3_linear_121_1908)"/>
<path fill-rule="evenodd" clip-rule="evenodd" d="M25.7002 28.675C25.7002 27.9708 26.271 27.4 26.9752 27.4H44.8252C45.5294 27.4 46.1002 27.9708 46.1002 28.675C46.1002 29.3792 45.5294 29.95 44.8252 29.95H44.4002V53.325C44.4002 54.0292 43.8294 54.6 43.1252 54.6H40.5752C39.871 54.6 39.3002 54.0292 39.3002 53.325V49.075C39.3002 48.3708 38.7294 47.8 38.0252 47.8H33.7752C33.071 47.8 32.5002 48.3708 32.5002 49.075V53.325C32.5002 54.0292 31.9294 54.6 31.2252 54.6H26.9752C26.271 54.6 25.7002 54.0292 25.7002 53.325C25.7002 52.6208 26.271 52.05 26.9752 52.05H27.4002V29.95H26.9752C26.271 29.95 25.7002 29.3792 25.7002 28.675ZM30.8002 33.35C30.8002 32.8806 31.1808 32.5 31.6502 32.5H33.3502C33.8196 32.5 34.2002 32.8806 34.2002 33.35V35.05C34.2002 35.5194 33.8196 35.9 33.3502 35.9H31.6502C31.1808 35.9 30.8002 35.5194 30.8002 35.05V33.35ZM31.6502 39.3C31.1808 39.3 30.8002 39.6806 30.8002 40.15V41.85C30.8002 42.3194 31.1808 42.7 31.6502 42.7H33.3502C33.8196 42.7 34.2002 42.3194 34.2002 41.85V40.15C34.2002 39.6806 33.8196 39.3 33.3502 39.3H31.6502ZM37.6002 33.35C37.6002 32.8806 37.9808 32.5 38.4502 32.5H40.1502C40.6196 32.5 41.0002 32.8806 41.0002 33.35V35.05C41.0002 35.5194 40.6196 35.9 40.1502 35.9H38.4502C37.9808 35.9 37.6002 35.5194 37.6002 35.05V33.35ZM38.4502 39.3C37.9808 39.3 37.6002 39.6806 37.6002 40.15V41.85C37.6002 42.3194 37.9808 42.7 38.4502 42.7H40.1502C40.6196 42.7 41.0002 42.3194 41.0002 41.85V40.15C41.0002 39.6806 40.6196 39.3 40.1502 39.3H38.4502Z" fill="#A685FA"/>
<path fill-rule="evenodd" clip-rule="evenodd" d="M48.2252 34.2C47.521 34.2 46.9502 34.7708 46.9502 35.475V52.9C46.9502 53.8389 47.7113 54.6 48.6502 54.6H55.0252C55.7294 54.6 56.3002 54.0292 56.3002 53.325C56.3002 52.6208 55.7294 52.05 55.0252 52.05H54.6002V36.75H55.0252C55.7294 36.75 56.3002 36.1792 56.3002 35.475C56.3002 34.7708 55.7294 34.2 55.0252 34.2H48.2252ZM49.0752 40.15C49.0752 39.6806 49.4558 39.3 49.9252 39.3H51.6252C52.0946 39.3 52.4752 39.6806 52.4752 40.15V41.85C52.4752 42.3194 52.0946 42.7 51.6252 42.7H49.9252C49.4558 42.7 49.0752 42.3194 49.0752 41.85V40.15ZM49.9252 46.1C49.4558 46.1 49.0752 46.4806 49.0752 46.95V48.65C49.0752 49.1194 49.4558 49.5 49.9252 49.5H51.6252C52.0946 49.5 52.4752 49.1194 52.4752 48.65V46.95C52.4752 46.4806 52.0946 46.1 51.6252 46.1H49.9252Z" fill="#A685FA"/>
<defs>
<linearGradient id="paint0_linear_121_1908" x1="6.75" y1="86.5" x2="85.75" y2="-5.5" gradientUnits="userSpaceOnUse">
<stop stop-color="#A685FA"/>
<stop offset="0.323723" stop-color="#A685FA" stop-opacity="0"/>
</linearGradient>
<linearGradient id="paint1_linear_121_1908" x1="81.75" y1="-10.5" x2="6.75" y2="82" gradientUnits="userSpaceOnUse">
<stop stop-color="#A685FA"/>
<stop offset="0.576615" stop-color="#A685FA" stop-opacity="0"/>
</linearGradient>
<linearGradient id="paint2_linear_121_1908" x1="3.25" y1="13.5" x2="71.75" y2="72" gradientUnits="userSpaceOnUse">
<stop stop-color="#A685FA"/>
<stop offset="0.323723" stop-color="#A685FA" stop-opacity="0"/>
</linearGradient>
<linearGradient id="paint3_linear_121_1908" x1="84.25" y1="86" x2="12.25" y2="35" gradientUnits="userSpaceOnUse">
<stop stop-color="#A685FA"/>
<stop offset="0.576615" stop-color="#A685FA" stop-opacity="0"/>
</linearGradient>
</defs>
</svg>
