<svg width="24" height="24" viewBox="0 0 24 24" fill="none" xmlns="http://www.w3.org/2000/svg">
<g clip-path="url(#clip0_122_2009)">
<path d="M2.26946 15.7616H12.11V17.5697H18.2615V15.7655H20.7054C20.8637 17.9158 20.8761 19.8304 18.6707 21.2897C18.6437 21.3075 18.6221 21.3318 18.5623 21.385C18.8335 21.6103 19.1009 21.8329 19.3655 22.0529C19.0082 22.3945 18.7212 22.669 18.3922 22.9842C18.1019 22.6848 17.7879 22.3373 17.4458 22.0207C17.3453 21.9275 17.1673 21.8894 17.0215 21.8802C16.7831 21.8657 16.5414 21.9045 16.301 21.9052C13.1057 21.9071 9.91048 21.9065 6.71457 21.9065C6.56154 21.9065 6.398 21.936 6.25679 21.8933C5.83054 21.7653 5.55994 21.9629 5.30642 22.2684C5.09034 22.5284 4.84405 22.7629 4.61877 23.0007C4.31468 22.6808 4.03949 22.3918 3.73474 22.0707C3.939 21.89 4.19843 21.6602 4.49004 21.4014C4.28906 21.2576 4.13866 21.1577 3.99614 21.0474C2.92821 20.2244 2.3509 19.1329 2.27537 17.7924C2.23793 17.1284 2.2688 16.4604 2.2688 15.7616H2.26946Z" fill="white"/>
<path d="M2.27554 10.7871C2.27029 10.6682 2.26109 10.5612 2.26109 10.4541C2.26044 8.71363 2.25847 6.97381 2.26109 5.23333C2.26372 3.32078 3.59108 1.98619 5.50101 1.99998C6.14203 2.00458 6.80275 1.99145 7.41882 2.13659C8.5117 2.39471 9.20001 3.15264 9.53235 4.22057C9.59671 4.42811 9.68012 4.5286 9.90803 4.59034C11.194 4.93909 12.0964 6.141 12.1128 7.48216C12.1155 7.69824 12.1128 7.91432 12.1128 8.14879H6.02578C5.73548 6.61389 6.56959 5.02973 8.31335 4.53517C8.15573 3.85014 7.48121 3.27217 6.7732 3.24722C6.23792 3.22817 5.70067 3.2262 5.16539 3.24722C4.24261 3.28334 3.50044 4.13059 3.4965 5.14663C3.48994 6.89762 3.49453 8.64926 3.49453 10.4002C3.49453 10.5198 3.49453 10.6393 3.49453 10.7864H2.27423L2.27554 10.7871Z" fill="white"/>
<path d="M12.0931 14.5327C11.9644 14.5327 11.8678 14.5327 11.7713 14.5327C8.64366 14.5327 5.5154 14.5334 2.38779 14.5321C1.71459 14.5321 1.23054 14.2135 1.06043 13.6697C0.804289 12.8514 1.38423 12.0632 2.26826 12.0514C3.20877 12.0389 4.14929 12.0481 5.0898 12.0481C7.29922 12.0481 9.50799 12.0481 11.7174 12.0481C11.8356 12.0481 11.9538 12.0481 12.0931 12.0481V14.5321V14.5327Z" fill="white"/>
<path d="M17.0237 16.3711H13.3634C13.3575 16.2555 13.3477 16.1504 13.3477 16.0453C13.3464 14.7771 13.3464 13.5082 13.3477 12.2399C13.3483 11.3224 13.8494 10.818 14.763 10.8141C15.1019 10.8128 15.4408 10.8055 15.7797 10.816C16.5409 10.8403 17.0381 11.352 17.0401 12.1152C17.044 13.4386 17.0414 14.7613 17.0401 16.0848C17.0401 16.1708 17.0309 16.2562 17.0237 16.3711Z" fill="white"/>
<path d="M18.2832 14.5209V12.0482C18.8782 12.0482 19.4648 12.0462 20.0506 12.0488C20.356 12.0501 20.668 12.0252 20.9668 12.0744C21.619 12.1821 22.0433 12.7161 22.0164 13.3394C21.9901 13.9509 21.5389 14.4756 20.8985 14.5091C20.0394 14.5544 19.1764 14.5203 18.2839 14.5203L18.2832 14.5209Z" fill="white"/>
</g>
<defs>
<clipPath id="clip0_122_2009">
<rect width="21.0171" height="21" fill="white" transform="translate(1 2)"/>
</clipPath>
</defs>
</svg>
