<svg width="82" height="82" viewBox="0 0 82 82" fill="none" xmlns="http://www.w3.org/2000/svg">
<rect x="0.5" y="0.5" width="81" height="81" rx="40.5" stroke="url(#paint0_linear_121_1916)"/>
<rect x="0.5" y="0.5" width="81" height="81" rx="40.5" stroke="url(#paint1_linear_121_1916)"/>
<rect x="10.5" y="10.5" width="61" height="61" rx="30.5" stroke="url(#paint2_linear_121_1916)"/>
<rect x="10.5" y="10.5" width="61" height="61" rx="30.5" stroke="url(#paint3_linear_121_1916)"/>
<path d="M41 27.1875C41.5868 27.1875 42.0625 27.6632 42.0625 28.25V31.4375C42.0625 32.0243 41.5868 32.5 41 32.5C40.4132 32.5 39.9375 32.0243 39.9375 31.4375V28.25C39.9375 27.6632 40.4132 27.1875 41 27.1875Z" fill="#A685FA"/>
<path d="M34.625 41C34.625 37.4792 37.4792 34.625 41 34.625C44.5208 34.625 47.375 37.4792 47.375 41C47.375 44.5208 44.5208 47.375 41 47.375C37.4792 47.375 34.625 44.5208 34.625 41Z" fill="#A685FA"/>
<path d="M50.767 32.7356C51.1819 32.3207 51.1819 31.648 50.767 31.233C50.3521 30.8181 49.6793 30.8181 49.2644 31.233L47.0105 33.4869C46.5955 33.9019 46.5955 34.5746 47.0105 34.9895C47.4254 35.4045 48.0982 35.4045 48.5131 34.9895L50.767 32.7356Z" fill="#A685FA"/>
<path d="M54.8125 41C54.8125 41.5868 54.3368 42.0625 53.75 42.0625H50.5625C49.9757 42.0625 49.5 41.5868 49.5 41C49.5 40.4132 49.9757 39.9375 50.5625 39.9375H53.75C54.3368 39.9375 54.8125 40.4132 54.8125 41Z" fill="#A685FA"/>
<path d="M49.2642 50.7669C49.6792 51.1818 50.3519 51.1818 50.7668 50.7669C51.1818 50.3519 51.1818 49.6792 50.7668 49.2643L48.5129 47.0104C48.098 46.5954 47.4253 46.5954 47.0103 47.0104C46.5954 47.4253 46.5954 48.098 47.0103 48.513L49.2642 50.7669Z" fill="#A685FA"/>
<path d="M41 49.5C41.5868 49.5 42.0625 49.9757 42.0625 50.5625V53.75C42.0625 54.3368 41.5868 54.8125 41 54.8125C40.4132 54.8125 39.9375 54.3368 39.9375 53.75V50.5625C39.9375 49.9757 40.4132 49.5 41 49.5Z" fill="#A685FA"/>
<path d="M34.9898 48.513C35.4047 48.098 35.4047 47.4253 34.9898 47.0104C34.5749 46.5954 33.9021 46.5954 33.4872 47.0104L31.2333 49.2643C30.8184 49.6792 30.8184 50.3519 31.2333 50.7669C31.6482 51.1818 32.321 51.1818 32.7359 50.7669L34.9898 48.513Z" fill="#A685FA"/>
<path d="M32.5 41C32.5 41.5868 32.0243 42.0625 31.4375 42.0625H28.25C27.6632 42.0625 27.1875 41.5868 27.1875 41C27.1875 40.4132 27.6632 39.9375 28.25 39.9375H31.4375C32.0243 39.9375 32.5 40.4132 32.5 41Z" fill="#A685FA"/>
<path d="M33.487 34.9895C33.902 35.4045 34.5747 35.4045 34.9896 34.9895C35.4046 34.5746 35.4046 33.9019 34.9896 33.4869L32.7357 31.233C32.3208 30.8181 31.6481 30.8181 31.2331 31.233C30.8182 31.648 30.8182 32.3207 31.2331 32.7356L33.487 34.9895Z" fill="#A685FA"/>
<defs>
<linearGradient id="paint0_linear_121_1916" x1="6.75" y1="86.5" x2="85.75" y2="-5.5" gradientUnits="userSpaceOnUse">
<stop stop-color="#A685FA"/>
<stop offset="0.323723" stop-color="#A685FA" stop-opacity="0"/>
</linearGradient>
<linearGradient id="paint1_linear_121_1916" x1="81.75" y1="-10.5" x2="6.75" y2="82" gradientUnits="userSpaceOnUse">
<stop stop-color="#A685FA"/>
<stop offset="0.576615" stop-color="#A685FA" stop-opacity="0"/>
</linearGradient>
<linearGradient id="paint2_linear_121_1916" x1="3.25" y1="13.5" x2="71.75" y2="72" gradientUnits="userSpaceOnUse">
<stop stop-color="#A685FA"/>
<stop offset="0.323723" stop-color="#A685FA" stop-opacity="0"/>
</linearGradient>
<linearGradient id="paint3_linear_121_1916" x1="84.25" y1="86" x2="12.25" y2="35" gradientUnits="userSpaceOnUse">
<stop stop-color="#A685FA"/>
<stop offset="0.576615" stop-color="#A685FA" stop-opacity="0"/>
</linearGradient>
</defs>
</svg>
