<svg width="82" height="82" viewBox="0 0 82 82" fill="none" xmlns="http://www.w3.org/2000/svg">
<rect x="0.5" y="0.5" width="81" height="81" rx="40.5" stroke="url(#paint0_linear_121_1900)"/>
<rect x="0.5" y="0.5" width="81" height="81" rx="40.5" stroke="url(#paint1_linear_121_1900)"/>
<rect x="10.5" y="10.5" width="61" height="61" rx="30.5" stroke="url(#paint2_linear_121_1900)"/>
<rect x="10.5" y="10.5" width="61" height="61" rx="30.5" stroke="url(#paint3_linear_121_1900)"/>
<path d="M41 34.625C39.2396 34.625 37.8125 36.0521 37.8125 37.8125C37.8125 39.5729 39.2396 41 41 41C42.7604 41 44.1875 39.5729 44.1875 37.8125C44.1875 36.0521 42.7604 34.625 41 34.625Z" fill="#A685FA"/>
<path fill-rule="evenodd" clip-rule="evenodd" d="M26.125 30.9062C26.125 29.4392 27.3142 28.25 28.7812 28.25H53.2188C54.6858 28.25 55.875 29.4392 55.875 30.9062V44.7188C55.875 46.1858 54.6858 47.375 53.2188 47.375H28.7812C27.3142 47.375 26.125 46.1858 26.125 44.7188V30.9062ZM35.6875 37.8125C35.6875 34.8785 38.066 32.5 41 32.5C43.934 32.5 46.3125 34.8785 46.3125 37.8125C46.3125 40.7465 43.934 43.125 41 43.125C38.066 43.125 35.6875 40.7465 35.6875 37.8125ZM50.5625 36.75C49.9757 36.75 49.5 37.2257 49.5 37.8125V37.8231C49.5 38.4099 49.9757 38.8856 50.5625 38.8856H50.5731C51.1599 38.8856 51.6356 38.4099 51.6356 37.8231V37.8125C51.6356 37.2257 51.1599 36.75 50.5731 36.75H50.5625ZM30.375 37.8125C30.375 37.2257 30.8507 36.75 31.4375 36.75H31.4481C32.0349 36.75 32.5106 37.2257 32.5106 37.8125V37.8231C32.5106 38.4099 32.0349 38.8856 31.4481 38.8856H31.4375C30.8507 38.8856 30.375 38.4099 30.375 37.8231V37.8125Z" fill="#A685FA"/>
<path d="M27.1875 49.5C26.6007 49.5 26.125 49.9757 26.125 50.5625C26.125 51.1493 26.6007 51.625 27.1875 51.625C34.8376 51.625 42.247 52.6481 49.2872 54.5644C50.9738 55.0235 52.6875 53.7738 52.6875 51.9864V50.5625C52.6875 49.9757 52.2118 49.5 51.625 49.5H27.1875Z" fill="#A685FA"/>
<defs>
<linearGradient id="paint0_linear_121_1900" x1="6.75" y1="86.5" x2="85.75" y2="-5.5" gradientUnits="userSpaceOnUse">
<stop stop-color="#A685FA"/>
<stop offset="0.323723" stop-color="#A685FA" stop-opacity="0"/>
</linearGradient>
<linearGradient id="paint1_linear_121_1900" x1="81.75" y1="-10.5" x2="6.75" y2="82" gradientUnits="userSpaceOnUse">
<stop stop-color="#A685FA"/>
<stop offset="0.576615" stop-color="#A685FA" stop-opacity="0"/>
</linearGradient>
<linearGradient id="paint2_linear_121_1900" x1="3.25" y1="13.5" x2="71.75" y2="72" gradientUnits="userSpaceOnUse">
<stop stop-color="#A685FA"/>
<stop offset="0.323723" stop-color="#A685FA" stop-opacity="0"/>
</linearGradient>
<linearGradient id="paint3_linear_121_1900" x1="84.25" y1="86" x2="12.25" y2="35" gradientUnits="userSpaceOnUse">
<stop stop-color="#A685FA"/>
<stop offset="0.576615" stop-color="#A685FA" stop-opacity="0"/>
</linearGradient>
</defs>
</svg>
