<svg width="24" height="24" viewBox="0 0 24 24" fill="none" xmlns="http://www.w3.org/2000/svg">
<path fill-rule="evenodd" clip-rule="evenodd" d="M4.8001 19.8V4.20002H4.5001C4.00304 4.20002 3.6001 3.79708 3.6001 3.30002C3.6001 2.80297 4.00304 2.40002 4.5001 2.40002H19.5001C19.9972 2.40002 20.4001 2.80297 20.4001 3.30002C20.4001 3.79708 19.9972 4.20002 19.5001 4.20002H19.2001V19.8H19.5001C19.9972 19.8 20.4001 20.203 20.4001 20.7C20.4001 21.1971 19.9972 21.6 19.5001 21.6H15.3001C14.803 21.6 14.4001 21.1971 14.4001 20.7V17.7C14.4001 17.203 13.9972 16.8 13.5001 16.8H10.5001C10.003 16.8 9.6001 17.203 9.6001 17.7V20.7C9.6001 21.1971 9.19715 21.6 8.7001 21.6H4.5001C4.00304 21.6 3.6001 21.1971 3.6001 20.7C3.6001 20.203 4.00304 19.8 4.5001 19.8H4.8001ZM8.4001 6.60002C8.4001 6.26865 8.66873 6.00002 9.0001 6.00002H10.2001C10.5315 6.00002 10.8001 6.26865 10.8001 6.60002V7.80002C10.8001 8.1314 10.5315 8.40002 10.2001 8.40002H9.0001C8.66873 8.40002 8.4001 8.1314 8.4001 7.80002V6.60002ZM9.0001 10.8C8.66873 10.8 8.4001 11.0687 8.4001 11.4V12.6C8.4001 12.9314 8.66873 13.2 9.0001 13.2H10.2001C10.5315 13.2 10.8001 12.9314 10.8001 12.6V11.4C10.8001 11.0687 10.5315 10.8 10.2001 10.8H9.0001ZM13.2001 6.60002C13.2001 6.26865 13.4687 6.00002 13.8001 6.00002H15.0001C15.3315 6.00002 15.6001 6.26865 15.6001 6.60002V7.80002C15.6001 8.1314 15.3315 8.40002 15.0001 8.40002H13.8001C13.4687 8.40002 13.2001 8.1314 13.2001 7.80002V6.60002ZM13.8001 10.8C13.4687 10.8 13.2001 11.0687 13.2001 11.4V12.6C13.2001 12.9314 13.4687 13.2 13.8001 13.2H15.0001C15.3315 13.2 15.6001 12.9314 15.6001 12.6V11.4C15.6001 11.0687 15.3315 10.8 15.0001 10.8H13.8001Z" fill="white"/>
</svg>
