<svg width="82" height="82" viewBox="0 0 82 82" fill="none" xmlns="http://www.w3.org/2000/svg">
<rect x="0.5" y="0.5" width="81" height="81" rx="40.5" stroke="url(#paint0_linear_121_1892)"/>
<rect x="0.5" y="0.5" width="81" height="81" rx="40.5" stroke="url(#paint1_linear_121_1892)"/>
<rect x="10.5" y="10.5" width="61" height="61" rx="30.5" stroke="url(#paint2_linear_121_1892)"/>
<rect x="10.5" y="10.5" width="61" height="61" rx="30.5" stroke="url(#paint3_linear_121_1892)"/>
<path d="M28.8937 36.1058C30.8853 38.0975 34.1145 38.0975 36.1061 36.1058C36.3509 35.8611 36.5656 35.5976 36.7502 35.3201C37.6639 36.6941 39.2261 37.5996 40.9999 37.5996C42.7739 37.5996 44.3364 36.6938 45.25 35.3196C45.4347 35.5973 45.6495 35.8609 45.8944 36.1059C47.8861 38.0975 51.1152 38.0975 53.1069 36.1059C55.0986 34.1142 55.0986 30.885 53.1069 28.8934L52.6094 28.3958C51.9718 27.7582 51.107 27.4 50.2052 27.4H31.7953C30.8936 27.4 30.0288 27.7582 29.3911 28.3958L28.8937 28.8933C26.902 30.885 26.902 34.1141 28.8937 36.1058Z" fill="#A685FA"/>
<path d="M29.0999 39.3548C31.5275 40.5591 34.4616 40.3947 36.7509 38.8615C37.9654 39.6741 39.4269 40.1496 40.9999 40.1496C42.573 40.1496 44.0347 39.674 45.2493 38.8612C47.5384 40.3946 50.4723 40.5592 52.8999 39.3552V52.05H53.3249C54.0291 52.05 54.5999 52.6208 54.5999 53.325C54.5999 54.0292 54.0291 54.6 53.3249 54.6H45.6749C44.9707 54.6 44.3999 54.0292 44.3999 53.325V47.375C44.3999 46.6708 43.8291 46.1 43.1249 46.1H38.8749C38.1707 46.1 37.5999 46.6708 37.5999 47.375V53.325C37.5999 54.0292 37.0291 54.6 36.3249 54.6H28.6749C27.9707 54.6 27.3999 54.0292 27.3999 53.325C27.3999 52.6208 27.9707 52.05 28.6749 52.05H29.0999V39.3548Z" fill="#A685FA"/>
<defs>
<linearGradient id="paint0_linear_121_1892" x1="6.75" y1="86.5" x2="85.75" y2="-5.5" gradientUnits="userSpaceOnUse">
<stop stop-color="#A685FA"/>
<stop offset="0.323723" stop-color="#A685FA" stop-opacity="0"/>
</linearGradient>
<linearGradient id="paint1_linear_121_1892" x1="81.75" y1="-10.5" x2="6.75" y2="82" gradientUnits="userSpaceOnUse">
<stop stop-color="#A685FA"/>
<stop offset="0.576615" stop-color="#A685FA" stop-opacity="0"/>
</linearGradient>
<linearGradient id="paint2_linear_121_1892" x1="3.25" y1="13.5" x2="71.75" y2="72" gradientUnits="userSpaceOnUse">
<stop stop-color="#A685FA"/>
<stop offset="0.323723" stop-color="#A685FA" stop-opacity="0"/>
</linearGradient>
<linearGradient id="paint3_linear_121_1892" x1="84.25" y1="86" x2="12.25" y2="35" gradientUnits="userSpaceOnUse">
<stop stop-color="#A685FA"/>
<stop offset="0.576615" stop-color="#A685FA" stop-opacity="0"/>
</linearGradient>
</defs>
</svg>
