<svg width="24" height="24" viewBox="0 0 24 24" fill="none" xmlns="http://www.w3.org/2000/svg">
<g clip-path="url(#clip0_122_2005)">
<path d="M12.0119 19.4597C9.01369 19.4597 6.01627 19.4597 3.01806 19.4597C2.71493 19.4597 2.57479 19.5984 2.57479 19.8977C2.57479 19.9752 2.57872 20.0527 2.574 20.1295C2.5677 20.2225 2.55825 20.3155 2.54093 20.4062C2.47637 20.7372 2.15907 21.0023 1.77957 20.9984C1.39849 20.9946 1.08277 20.7116 1.02529 20.3481C1.01191 20.2628 1.00482 20.1752 1.00482 20.0891C1.00403 18.3279 0.992223 16.5659 1.00876 14.8046C1.0182 13.7783 1.39771 12.8853 2.12521 12.1419C2.56691 11.6907 3.09207 11.3698 3.69282 11.1651C4.16522 11.0046 4.65338 10.9558 5.15098 10.9558C9.76246 10.9574 14.3739 10.9535 18.9854 10.9589C20.3365 10.9605 21.4309 11.4969 22.2419 12.5636C22.6403 13.0884 22.8781 13.6845 22.9592 14.3357C22.9867 14.555 22.9985 14.7783 22.9993 15C23.0025 16.7101 23.0017 18.4202 23.0009 20.1302C23.0009 20.3977 22.934 20.6411 22.7104 20.8178C22.4741 21.0046 22.2104 21.0535 21.9293 20.9395C21.66 20.8295 21.49 20.6271 21.4514 20.338C21.4317 20.1922 21.4341 20.0426 21.4301 19.8953C21.4238 19.6574 21.3238 19.5139 21.1239 19.4698C21.0798 19.4597 21.0333 19.4605 20.9876 19.4605C17.9965 19.4605 15.0054 19.4605 12.0135 19.4605L12.0119 19.4597Z" fill="white"/>
<path d="M11.9025 4C13.8472 4 15.7912 4 17.7351 4C18.3862 4 18.9949 4.14341 19.52 4.53953C20.1956 5.04884 20.59 5.71938 20.6231 6.56124C20.6514 7.27519 20.6388 7.9907 20.642 8.70543C20.6444 9.16589 20.642 9.62636 20.642 10.0868C20.642 10.1279 20.6396 10.1713 20.6286 10.2109C20.5948 10.3357 20.5263 10.3853 20.3971 10.3612C20.2562 10.3349 20.12 10.2783 19.979 10.2628C19.6476 10.2271 19.3153 10.2023 18.9823 10.1853C18.7602 10.1736 18.6917 10.1341 18.6602 9.91938C18.5595 9.23876 17.9194 8.62636 17.1005 8.63566C16.1872 8.64574 15.2739 8.63798 14.3613 8.63798C13.6819 8.63798 13.1016 9.03643 12.8709 9.66434C12.8378 9.75426 12.8252 9.85194 12.8079 9.94651C12.7756 10.1163 12.7119 10.1798 12.5402 10.1822C12.1804 10.186 11.8198 10.186 11.46 10.1822C11.2946 10.1806 11.2293 10.1163 11.1994 9.92791C11.1576 9.66357 11.0537 9.42791 10.8836 9.22093C10.5758 8.84574 10.1774 8.64186 9.68609 8.63953C8.74363 8.63488 7.80118 8.63721 6.85794 8.63876C6.06587 8.63953 5.44623 9.24884 5.34545 9.91783C5.31317 10.1341 5.24782 10.1721 5.02579 10.186C4.6581 10.2101 4.29041 10.2442 3.92351 10.2829C3.81092 10.2946 3.70305 10.3426 3.59125 10.3612C3.47078 10.3806 3.41488 10.3403 3.38103 10.224C3.36764 10.1783 3.36134 10.1295 3.36134 10.0814C3.36055 8.97674 3.3456 7.87209 3.36449 6.76744C3.38418 5.61163 3.92666 4.76202 4.988 4.24806C5.40844 4.04574 5.86431 4 6.3257 4C8.18462 4 10.0435 4 11.9025 4Z" fill="white"/>
</g>
<defs>
<clipPath id="clip0_122_2005">
<rect width="22" height="17" fill="white" transform="translate(1 4)"/>
</clipPath>
</defs>
</svg>
