<svg width="160" height="48" viewBox="0 0 160 48" fill="none" xmlns="http://www.w3.org/2000/svg">
<path d="M24 48C10.7467 48 0 37.2533 0 24H24V48Z" fill="#703BF7"/>
<path d="M0 0C13.2533 0 24 10.7467 24 24H0V0Z" fill="#703BF7"/>
<path d="M24 48C37.2533 48 48 37.2533 48 24H24V48Z" fill="#703BF7"/>
<path d="M48 24C48 10.7467 37.2533 0 24 0V24H48Z" fill="#703BF7"/>
<path d="M156.82 34.8599V26.8531C156.82 25.9281 156.522 25.167 155.924 24.5696C155.346 23.9722 154.595 23.6735 153.67 23.6735C153.053 23.6735 152.504 23.8084 152.022 24.0782C151.54 24.348 151.165 24.7238 150.895 25.2055C150.625 25.6873 150.49 26.2365 150.49 26.8531L149.247 26.1594C149.247 25.0995 149.478 24.1649 149.941 23.3556C150.403 22.527 151.039 21.8814 151.849 21.4189C152.677 20.9372 153.602 20.6963 154.624 20.6963C155.664 20.6963 156.589 20.9661 157.398 21.5056C158.208 22.0259 158.844 22.71 159.306 23.5579C159.769 24.3865 160 25.2537 160 26.1594V34.8599H156.82ZM147.311 34.8599V20.9853H150.49V34.8599H147.311Z" fill="white"/>
<path d="M140.565 34.8601V20.9856H143.745V34.8601H140.565ZM142.155 18.442C141.616 18.442 141.163 18.2589 140.797 17.8928C140.45 17.5266 140.276 17.0738 140.276 16.5342C140.276 15.9946 140.45 15.5418 140.797 15.1757C141.163 14.8095 141.616 14.6265 142.155 14.6265C142.714 14.6265 143.167 14.8095 143.514 15.1757C143.861 15.5418 144.034 15.9946 144.034 16.5342C144.034 17.0738 143.861 17.5266 143.514 17.8928C143.167 18.2589 142.714 18.442 142.155 18.442Z" fill="white"/>
<path d="M131.541 35.1489C130.154 35.1489 128.901 34.8406 127.783 34.2239C126.685 33.588 125.808 32.7209 125.153 31.6225C124.517 30.5241 124.199 29.2908 124.199 27.9226C124.199 26.5544 124.517 25.3308 125.153 24.2516C125.789 23.1532 126.647 22.2861 127.726 21.6502C128.824 21.0142 130.038 20.6963 131.368 20.6963C132.659 20.6963 133.796 20.995 134.779 21.5924C135.781 22.1897 136.561 23.0087 137.12 24.0493C137.698 25.0899 137.987 26.275 137.987 27.6046C137.987 27.8359 137.968 28.0768 137.929 28.3273C137.91 28.5585 137.871 28.8187 137.814 29.1077H126.425V26.5062H136.166L134.981 27.5468C134.942 26.6989 134.779 25.9859 134.489 25.4078C134.2 24.8297 133.786 24.3865 133.247 24.0782C132.726 23.7699 132.081 23.6157 131.31 23.6157C130.501 23.6157 129.797 23.7891 129.2 24.136C128.602 24.4829 128.14 24.9743 127.812 25.6102C127.485 26.2268 127.321 26.9687 127.321 27.8359C127.321 28.703 127.494 29.4642 127.841 30.1194C128.188 30.7746 128.68 31.2852 129.315 31.6514C129.951 31.9982 130.684 32.1717 131.512 32.1717C132.225 32.1717 132.88 32.0464 133.478 31.7959C134.094 31.5454 134.615 31.1793 135.039 30.6975L137.062 32.7498C136.388 33.5399 135.569 34.1372 134.605 34.5419C133.642 34.9466 132.62 35.1489 131.541 35.1489Z" fill="white"/>
<path d="M116.678 34.8602V15.2046H119.857V34.8602H116.678ZM113.354 23.8762V20.9856H123.181V23.8762H113.354Z" fill="white"/>
<path d="M103.61 35.1489C102.357 35.1489 101.22 34.831 100.199 34.195C99.1969 33.5591 98.3971 32.7016 97.7998 31.6225C97.2217 30.5241 96.9326 29.3004 96.9326 27.9515C96.9326 26.5833 97.2217 25.3597 97.7998 24.2805C98.3971 23.1821 99.1969 22.315 100.199 21.6791C101.22 21.0239 102.357 20.6963 103.61 20.6963C104.67 20.6963 105.604 20.9275 106.414 21.39C107.242 21.8332 107.897 22.4499 108.379 23.24C108.861 24.03 109.102 24.9261 109.102 25.9281V29.9171C109.102 30.9191 108.861 31.8152 108.379 32.6053C107.917 33.3953 107.271 34.0216 106.442 34.4841C105.614 34.9273 104.67 35.1489 103.61 35.1489ZM104.13 32.1428C105.306 32.1428 106.25 31.7477 106.963 30.9577C107.695 30.1676 108.061 29.1559 108.061 27.9226C108.061 27.094 107.897 26.3617 107.57 25.7258C107.242 25.0899 106.78 24.5985 106.182 24.2516C105.604 23.8855 104.92 23.7024 104.13 23.7024C103.359 23.7024 102.675 23.8855 102.078 24.2516C101.5 24.5985 101.037 25.0899 100.69 25.7258C100.363 26.3617 100.199 27.094 100.199 27.9226C100.199 28.7512 100.363 29.4835 100.69 30.1194C101.037 30.7553 101.5 31.2563 102.078 31.6225C102.675 31.9693 103.359 32.1428 104.13 32.1428ZM107.859 34.8599V31.1311L108.408 27.7492L107.859 24.3962V20.9853H111.038V34.8599H107.859Z" fill="white"/>
<path d="M89.3807 34.8602V15.2046H92.5603V34.8602H89.3807ZM86.0566 23.8762V20.9856H95.8844V23.8762H86.0566Z" fill="white"/>
<path d="M79.3889 35.1489C78.6181 35.1489 77.8762 35.0526 77.1632 34.8599C76.4502 34.6479 75.795 34.3588 75.1976 33.9927C74.6002 33.6073 74.0799 33.1448 73.6367 32.6053L75.6601 30.5819C76.1418 31.1407 76.691 31.5647 77.3077 31.8537C77.9436 32.1235 78.6566 32.2584 79.4467 32.2584C80.1597 32.2584 80.6992 32.1524 81.0654 31.9404C81.4315 31.7285 81.6146 31.4201 81.6146 31.0155C81.6146 30.5915 81.4411 30.2639 81.0943 30.0327C80.7474 29.8014 80.2946 29.6087 79.7357 29.4546C79.1962 29.2811 78.6181 29.1077 78.0014 28.9343C77.404 28.7609 76.8259 28.5296 76.2671 28.2406C75.7275 27.9322 75.2843 27.5179 74.9375 26.9976C74.5906 26.4773 74.4172 25.8029 74.4172 24.9743C74.4172 24.0878 74.6195 23.3267 75.0242 22.6908C75.4481 22.0548 76.0359 21.5634 76.7874 21.2166C77.5582 20.8697 78.4735 20.6963 79.5334 20.6963C80.6511 20.6963 81.6338 20.8986 82.4817 21.3033C83.3489 21.6887 84.0715 22.2764 84.6496 23.0665L82.6262 25.0899C82.2216 24.5889 81.7591 24.2131 81.2388 23.9626C80.7185 23.7121 80.1211 23.5868 79.4467 23.5868C78.8108 23.5868 78.3194 23.6832 77.9725 23.8759C77.6256 24.0686 77.4522 24.348 77.4522 24.7141C77.4522 25.0995 77.6256 25.3982 77.9725 25.6102C78.3194 25.8222 78.7626 26.0052 79.3021 26.1594C79.861 26.3135 80.4391 26.487 81.0365 26.6797C81.6531 26.8531 82.2312 27.1036 82.7708 27.4312C83.3296 27.7395 83.7825 28.1635 84.1293 28.703C84.4762 29.2233 84.6496 29.9074 84.6496 30.7553C84.6496 32.1042 84.1775 33.1737 83.2333 33.9638C82.289 34.7539 81.0076 35.1489 79.3889 35.1489Z" fill="white"/>
<path d="M58.2344 34.8601V14.6265H61.5585V34.8601H58.2344ZM60.5179 34.8601V31.8251H71.8487V34.8601H60.5179ZM60.5179 25.9862V23.0668H70.866V25.9862H60.5179ZM60.5179 17.6615V14.6265H71.7042V17.6615H60.5179Z" fill="white"/>
</svg>
