<svg width="82" height="82" viewBox="0 0 82 82" fill="none" xmlns="http://www.w3.org/2000/svg">
<rect x="0.5" y="0.5" width="81" height="81" rx="40.5" stroke="url(#paint0_linear_104_13261)"/>
<rect x="0.5" y="0.5" width="81" height="81" rx="40.5" stroke="url(#paint1_linear_104_13261)"/>
<rect x="10.5" y="10.5" width="61" height="61" rx="30.5" stroke="url(#paint2_linear_104_13261)"/>
<rect x="10.5" y="10.5" width="61" height="61" rx="30.5" stroke="url(#paint3_linear_104_13261)"/>
<path d="M41 55C33.2689 55 27 48.7311 27 41H41V55Z" fill="#A685FA"/>
<path d="M27 27C34.7311 27 41 33.2689 41 41H27V27Z" fill="#A685FA"/>
<path d="M41 55C48.7311 55 55 48.7311 55 41H41V55Z" fill="#A685FA"/>
<path d="M55 41C55 33.2689 48.7311 27 41 27V41H55Z" fill="#A685FA"/>
<defs>
<linearGradient id="paint0_linear_104_13261" x1="6.75" y1="86.5" x2="85.75" y2="-5.5" gradientUnits="userSpaceOnUse">
<stop stop-color="#A685FA"/>
<stop offset="0.323723" stop-color="#A685FA" stop-opacity="0"/>
</linearGradient>
<linearGradient id="paint1_linear_104_13261" x1="81.75" y1="-10.5" x2="6.75" y2="82" gradientUnits="userSpaceOnUse">
<stop stop-color="#A685FA"/>
<stop offset="0.576615" stop-color="#A685FA" stop-opacity="0"/>
</linearGradient>
<linearGradient id="paint2_linear_104_13261" x1="3.25" y1="13.5" x2="71.75" y2="72" gradientUnits="userSpaceOnUse">
<stop stop-color="#A685FA"/>
<stop offset="0.323723" stop-color="#A685FA" stop-opacity="0"/>
</linearGradient>
<linearGradient id="paint3_linear_104_13261" x1="84.25" y1="86" x2="12.25" y2="35" gradientUnits="userSpaceOnUse">
<stop stop-color="#A685FA"/>
<stop offset="0.576615" stop-color="#A685FA" stop-opacity="0"/>
</linearGradient>
</defs>
</svg>
